<?xml version="1.0" encoding="UTF-8"?>
<svg id="Layer_1" data-name="Layer 1" xmlns="http://www.w3.org/2000/svg" version="1.1" viewBox="0 0 300 300">
  <defs>
    <style>
      .cls-1 {
        fill: #609;
        stroke: #fc3;
        stroke-miterlimit: 10;
        stroke-width: 6px;
      }

      .cls-2 {
        fill: #fc3;
      }

      .cls-2, .cls-3 {
        stroke-width: 0px;
      }

      .cls-3 {
        display: none;
        fill: #450d59;
      }
    </style>
  </defs>
  <polygon class="cls-1" points="257.1 209.7 257.1 85.3 149.4 23.1 41.8 85.3 41.8 209.7 149.4 271.8 257.1 209.7"/>
  <path class="cls-3" d="M0,150v150h300V0H0v150ZM170,47.5c19.3,5.1,36.4,18.7,46.3,36.6,9.9,18.1,11.9,39.9,5.5,59.9-14.6,45.4-69.4,65.4-111.1,40.6-16.9-10.1-27.6-24.3-34.9-46.1-2.1-6.3-1.7-30.5.6-38,2.1-7,7.4-17.9,11.5-23.9,3.1-4.4,11.2-12.6,17.5-17.5,7.2-5.7,21.1-11.4,32.1-13.2,7.6-1.2,25.2-.3,32.5,1.6ZM88.8,207.9c1.2,1.1,2.2,2.4,2.2,3,0,2.1,1.8,2,4.6-.4,6.2-5.3,17.8-5.4,23.3-.1,3.3,3.1,4.7,3.3,5.4.6,1.6-6,19.1-6.5,25.6-.6,1.6,1.4,1.9,1.3,4.4-1.5,3.5-4,5.8-3.3,11.8,3.2l4.7,5,2.7-3.6c1.6-1.9,4.1-4.5,5.7-5.6,2.7-2,3-2,5.5-.4,2.4,1.6,2.8,1.6,6.3,0,3.1-1.4,5.4-1.6,11.7-1.1,4.3.4,9.4.6,11.3.5,15.3-.8,21.8-.4,23.9,1.5,3.5,3.1,2.8,7.2-1.7,10l-3.9,2.4v8.8c-.1,8.2-.3,9-2.7,11-3,2.7-5.8,2.2-8.6-1.4-1.6-2-2-4-2-10.8s0-8.4-3.1-10c-4.1-2.1-5.9-.6-3.9,3.1,1.1,2,1.1,3.3.4,5.4-.9,2.3-.7,3.3,1.2,6.1,1.6,2.3,2,3.8,1.4,5-1.9,3.6-4.1,4.3-13.3,4.6-8.1.2-9.5,0-11.4-1.9-1.5-1.3-3-1.4-4.5-.1-1.3,1.1-3.3,1.8-4.5,1.6-2.4-.4-6.3-4.6-6.3-6.9s-.4-1.1-2.1-.2c-1.6.8-2.8.8-4.6,0-2-.9-2.5-.8-2.9.7-1.7,5.5-5.4,7.8-9.3,5.7-2.2-1.1-3.1-1.1-5.3.1-3.2,1.7-6.9,1-9.4-1.7-2.2-2.4-2.6-2.4-6.9.5-2.1,1.5-4.3,2.2-5.3,1.9-2.1-.8-5.2-3.9-5.2-5.3s-1.6-1.2-3.1.6-4.6,3.2-9.9,4.5c-4.4,1-10.3-.5-14.7-3.8l-3.3-2.5-2.6,3.1c-3.5,4.1-6.2,3.9-11.7-.9-5.2-4.6-5.7-4.8-5.7-2,0,5.2-7.9,7.9-11.5,4-1.5-1.7-1.8-4-1.9-16.1,0-12.8,0-14.2,1.8-15.5,3.3-2.4,6.4-1.6,11.1,2.7l4.5,4.1.9-2.5c1.3-3.5,4.7-6.7,6.9-6.7.9.1,2.7.9,4,1.9h0Z"/>
  <g>
    <g>
      <path class="cls-2" d="M134.5,48c-32.5,6.9-56,34.5-57.3,67.3-.8,17.7,4.1,33.1,15,47.6,17.4,22.9,49.8,33.2,78.6,24.8,21.2-6.1,40.4-24.4,47.8-45.6,2.1-5.9,2.7-9.7,3.1-20.4.5-15-1.2-23.5-7.3-35.9-14.2-28.7-47.9-44.7-79.9-37.8h0ZM167.2,54.9c7.8,2,19.7,8.3,26.4,14s15.6,19.1,19,28.6c2.5,6.6,2.7,8.6,2.8,20.8,0,12.1-.3,14.2-2.7,20.8-3.9,10.7-8.4,17.7-16.8,26.2-12,12-25.3,17.7-43.5,18.7-8.1.4-11.6.1-18.3-1.6-22.6-5.6-40.5-22.4-47.8-44.7-2.5-7.6-2.9-10.4-2.8-19.4,0-16.2,4.8-28.8,15.8-42.2,16-19.4,42.6-27.7,67.9-21.2h0Z"/>
      <path class="cls-2" d="M134.4,59.7c-17.1,4.2-31.8,16.4-40,33.1-5.2,10.5-6.9,18.3-6.2,29,.6,9.6,1.5,13,6.8,24,4.7,10,16.7,22,26.9,26.8,18.5,8.8,37.4,8.7,55.6-.3,18.7-9.2,30.9-26.8,33.3-48.1,3.2-28.6-16.8-56.9-45.5-64.3-7.3-1.9-23.6-2-30.9-.2h0ZM163.8,65.9c19.5,5.5,34.3,20.1,40.3,39.8,1.6,5.3,2,8.4,1.5,14-1.1,15-9,31.4-19.2,40.1-27.4,23.5-70.4,15.2-86.5-16.6-7.3-14.4-8.4-28.2-3.2-41.4,6.1-15.2,17.8-27.7,31.2-33.1,13.7-5.5,23.6-6.3,35.9-2.8Z"/>
      <path class="cls-2" d="M132,69.7l-2.4,1.4,2.2.7c2.2.7,5.1-.8,5.1-2.6s-2.1-1-4.9.5h0Z"/>
      <path class="cls-2" d="M143.2,69.8c-1.7.7-4.1,2.7-5.3,4.3-2,2.7-2.5,2.9-5.1,2-6.5-2.2-15.2,2.6-16.5,9.1-.5,2.2-1.2,3.1-2.6,3.1s-3.3,1.3-4.9,2.9c-2.2,2.3-2.9,3.9-2.9,6.9s-.5,4.1-2.5,5c-5.5,2.5-7.6,13.4-3.6,19,2.7,3.9,7.1,5.6,13,5l4.9-.5.6,4c.5,2.8,1.8,5.2,4.5,7.9s4.5,3.8,8.2,3.8,5.3-.7,6.3-1.5c4.3-3.3,4.6-2.4,4.6,13.5v15h5.5l-.3-21.2-.3-21.1-4.8-5.5-4.8-5.5-9.3.2c-8.9.2-9.4.4-12.1,3.2-3.4,3.6-7.1,3.8-10.4.4-3.4-3.3-3.3-7.8,0-11,3.5-3.3,5.9-3.1,9.6.5,2.4,2.4,3.8,3,7.4,3h4.4v-7.9c0-7.3-.2-8-2.5-9.5-1.9-1.3-2.5-2.5-2.5-5.4,0-8.9,10.6-11.4,13.9-3.3,1,2.4,1,3.4-.3,5.9-.8,1.6-2.2,3.2-3.1,3.5-1.2.5-1.5,2.4-1.5,8.8v8.1l3.6-.4c3.3-.4,4.1,0,8.5,4.6l4.8,5.1-.2-16.3c-.1-12-.4-16.2-1.4-16.2-1.9,0-4.3-4.2-4.3-7.5,0-6.6,8.3-10,12.8-5.2s2.8,7.3-.6,10.7l-2.8,2.8-.2,15.7v15.8c-.1,0,4.6-4.6,4.6-4.6,2.6-2.6,5.3-4.7,5.8-4.7s2.3-.9,3.8-2.1c2.3-1.8,2.6-2.8,2.6-7.9s-.3-6.1-2-7c-3.2-1.7-4.2-5.5-2.6-9.5,2.5-5.8,10.2-6.1,13.2-.4,1.3,2.6,1.3,3.6.3,6-.6,1.7-2,3.4-3,4-1.6.8-1.9,2.2-1.9,8.9v8h4.2c3.4,0,4.7-.5,6.4-2.7,1.6-2.1,3-2.7,5.9-2.7,9.3,0,10.2,12.7,1,15-2.9.7-7.5-1.8-7.5-4.1s-1.8-1.5-9.8-1.5h-9.8l-5.6,5.7-5.6,5.8v20.8c-.1,0-.3,20.8-.3,20.8l2.8-.3,2.8-.3.2-12.4c.3-14.7.7-15.5,7-13.9,3.6.9,4.8.7,8-.9,5-2.6,8.3-7.5,8.3-12.5s.2-3.8,1.9-2.8c1.1.5,4.1,1,6.7,1,4,0,5.1-.5,8.4-3.8s5.8-9.3,3.6-14.5c-.8-2-2.7-4.5-4.3-5.4-2.3-1.5-2.7-2.4-2.5-5,.4-3.7-4.3-9.7-8.3-10.7-1.4-.4-2.5-1.3-2.5-2.2,0-2.5-3.8-7.3-7.2-9-2.9-1.5-8.4-1.5-11.8,0-1,.5-2.1-.3-3.2-2.3-3-5.3-11-7.4-17.5-4.5h.1ZM118.9,95.8c1.5,1.8.6,6.1-1.6,6.9-2.6,1-5.4-1.2-5.4-4.4s4.5-5.5,7-2.5ZM185.5,95.1c3.8,2.6.4,9.4-3.6,7.2-2.3-1.2-2.8-6.5-.7-7.3,1.8-.8,3.1-.8,4.3.1ZM142.3,98.9c.9.8,1.6,1.9,1.6,2.2,0,1.3-3.1,5.2-4.1,5.2-1.9,0-4.9-4-4.2-5.7,1.3-3.5,4.2-4.2,6.7-1.7ZM162.3,98.9c.9.8,1.6,1.9,1.6,2.2,0,1.4-3.1,5.2-4.2,5.2-1.6,0-4.8-3.1-4.8-4.6s2.8-4.4,4.5-4.4,2.1.7,2.9,1.6ZM136.9,123.3c4.3,4.3.8,14-5,14s-8-5.3-8-8.5c0-6.1,8.7-9.8,13-5.5ZM171.3,123.5c3.5,3.2,3.9,5.8,1.6,9.5-2.3,3.9-6.3,5.2-9.9,3.2-5.2-2.9-5.3-11-.1-13.6s5.6-1.6,8.4.9Z"/>
      <path class="cls-2" d="M129.1,126.5c-2.9,2.9.3,8.2,3.6,6.1,2.5-1.5,2.2-6.7-.3-7.1-1.1,0-2.6.3-3.3,1h0Z"/>
      <path class="cls-2" d="M163.9,126.8c-2.6,3.1,1.3,8.2,4.4,5.6,1.9-1.6,2.1-4.2.4-5.9s-3.3-1.5-4.8.3h0Z"/>
      <path class="cls-2" d="M162.4,70.3c2.1,2.3,5.5,2.7,5.5.6s-2.1-2.6-5.2-2.6-2.1,0-.3,2Z"/>
      <path class="cls-2" d="M146.6,79c-1.4,1.3-.7,5.3,1.1,6.2,3.7,2,7-2.7,4-5.7s-4.1-1.6-5.1-.5Z"/>
      <path class="cls-2" d="M127,86.7c-2,2.4-.9,5.1,1.9,5.1s2.5-.5,2.5-3-2.4-4.5-4.4-2.1Z"/>
      <path class="cls-2" d="M167.3,86.7c-1.1,2.9,0,5.1,2.6,5.1s2.5-.5,2.5-3-.5-3.1-2.3-3.3c-1.3-.2-2.4.3-2.8,1.2Z"/>
      <path class="cls-2" d="M108.1,111.5c-3,3,.3,7.7,4,5.7,2.4-1.3,2.3-4.6,0-5.9s-2.4-1.3-3.9.2h0Z"/>
      <path class="cls-2" d="M186.1,111.5c-3,3,1.1,8.5,4.4,5.7,2.5-2.1,1.1-6.9-2.1-6.9s-1.6.5-2.3,1.2h0Z"/>
      <path class="cls-2" d="M96.5,125.1c-1.7,2.8,5,18.4,11.5,26.6,6.7,8.4,18.8,16.2,26.9,17.3,4.4.6,4.7.1,3.4-7.8l-.6-3.7-3.6,2.4c-4.5,3.1-5.7,3-9.3-.5-3.6-3.6-3.6-5.4-.2-9.9l2.7-3.5-2.5-1.6c-4.1-2.7-7.8-6.6-8.8-9.4-1-2.7-3.6-4.5-4.7-3.4-.4.3,0,1.6,1,2.9,2.2,3.2,2,5.1-1,7.9-2.3,2.2-2.7,2.3-5.2.8-3.8-2.1-4.1-6.2-.7-9.3l2.7-2.5-3.5-1.5c-1.9-.8-4.4-2.3-5.6-3.5s-2.2-1.7-2.5-1.3h0Z"/>
      <path class="cls-2" d="M198.1,127.3c-2.4,1.6-4.8,3-5.5,3.3-.7.2.1,1.9,2.2,4.2l3.4,3.9-3.2,2.8c-1.7,1.5-3.8,2.8-4.6,2.8-3.6,0-7.3-7.8-4.5-9.5,1.3-.8,1.3-3.5,0-3.5s-2.5,2.5-4.4,5.5-4.9,6.1-6.6,7c-1.6.8-3,1.7-3,2s1.1,1.6,2.5,3.1c3.2,3.5,3.3,8.3.2,11.2-3.4,3.2-7.9,2.9-11-.7-1.4-1.7-2.8-2.7-3.1-2.4-1.1,1.1-.7,13.3.5,13.3,2.3,0,14.7-5.5,19.5-8.6,6.9-4.6,10.9-9.2,16.3-18.6,2.3-4.3,6.4-16.3,6-17.7-.2-.6-2.3.3-4.7,1.9h0Z"/>
      <path class="cls-2" d="M105.9,136.8c-1.1,1.3-1.1,1.8.2,3.1,2,2,5,.7,4.6-2-.4-2.6-3-3.2-4.8-1.1Z"/>
      <path class="cls-2" d="M188.3,136.8c-1.6,4.1,2.7,6,5,2.2.8-1.4.8-2-.4-2.7-2.2-1.4-4-1.2-4.6.5Z"/>
      <path class="cls-2" d="M134.7,146c-1.6.4-1.6.7.4,3.4,1.3,1.7,2.4,2.5,2.8,1.8.8-1.2.1-6-.9-5.8-.3.1-1.4.3-2.3.6Z"/>
      <path class="cls-2" d="M161.6,147c-.4.3-.7,1.7-.7,3.1,0,2.1.2,2.2,1.5,1.2.8-.7,1.5-2.1,1.5-3.1,0-1.9-1.1-2.5-2.3-1.2Z"/>
      <path class="cls-2" d="M126.9,151.3c-2.5,2.5-2.5,4.2,0,6.5,3.9,3.5,9.2-1.7,6.2-6.1s-4.2-2.4-6.2-.4Z"/>
      <path class="cls-2" d="M166.6,151.1c-3.2,3.5-1.5,8.2,2.8,8.2s2.6-.5,3.3-1.2c1.9-1.9,1.5-6.6-.7-7.8-2.7-1.4-3.5-1.3-5.4.8h0Z"/>
    </g>
    <g>
      <path class="cls-2" d="M75.9,196.9c-.3.3-.6,6-.6,12.7,0,12.6.3,13.4,3.7,12.4,1.3-.3,1.4-1.4,1.4-8.1v-7.7l2.4,3.3c4.6,6.3,10.6,12.3,12.2,12.3s1.6-.8,1.6-12.3-.3-12.5-.9-12.9c-.5-.3-1.6-.3-2.6,0-1.5.5-1.7,1.3-1.7,8.2v7.7l-5.7-7c-5.9-7.2-8.9-9.7-9.9-8.7h0Z"/>
      <path class="cls-2" d="M155.1,196.9c-.3.3-.6,6-.6,12.7,0,12.6.4,13.9,3.9,12.5,1.1-.4,1.3-1.8,1-7.6-.2-3.9,0-7.2.2-7.2s1.9,2.3,3.7,5.1c1.8,2.9,3.4,5,3.5,4.9.2-.2,1.8-2.6,3.7-5.3l3.5-5v7.2c0,7.6.7,9,3.8,7.8,2-.8,1.5-25.3-.5-25.7-1.2-.3-6.5,5.9-9.7,11.3-.8,1.3-1.6.4-5.5-5-4.3-6-5.8-7.3-7.2-5.9h0Z"/>
      <path class="cls-2" d="M106.2,199c-5.2,3.7-6.9,11.3-3.7,16.7,5.2,8.5,17.5,8.2,22.3-.7,3-5.5.4-13.6-5.3-16.6-3.7-2-10.1-1.6-13.4.6ZM117.5,202.8c1.6.7,3.8,4.7,3.8,7.2s-4.5,6.8-8.1,6.8c-6.5,0-9.8-7.8-5.1-12.4,2-2.1,6.2-2.8,9.4-1.6Z"/>
      <path class="cls-2" d="M111.8,206c-2.3,1.1-3.2,4.3-1.6,6.1,1.5,1.8,4.9,1.4,6.2-.6,2.5-3.5-.8-7.5-4.6-5.5Z"/>
      <path class="cls-2" d="M130.2,198.3c-.2.6-.3,6-.2,12.2l.3,11h2.6c2.5,0,2.6-.2,2.5-3.6,0-3.1.3-3.6,2-3.9,1.5-.3,2.5.4,4.6,3.7,2.3,3.7,3,4.2,5.6,4.2s3.2,0-.8-5.5c-2.4-3.2-2.4-3.4-.8-4,2.5-.9,4.4-5.2,3.8-8.3-.3-1.4-1.7-3.7-3.1-4.8-2.2-1.9-3.3-2.1-9.3-2.1s-6.9.3-7.2,1.1h0ZM144,203.6c1.4,1.9,1.4,2.2,0,3.9-.6.8-2.9,1.5-5,1.7l-3.8.4v-8.4c0,0,3.8.4,3.8.4,2.3.3,4.3,1,4.9,2h0Z"/>
      <path class="cls-2" d="M184.3,209.5v12.4h18l-.3-2.4c-.3-2.2-.4-2.3-6.4-2.6-4.6-.2-6.2-.5-6.2-1.4s-.3-1.7-.5-2.5c-.4-1.2.3-1.4,5.5-1.4s6,0,6-2.1-.2-2.1-5.5-2.1h-5.5v-6.1l5.8.3c3.8.2,5.8-.5,6-2.1l.3-2.3h-17.1v12.4Z"/>
      <path class="cls-2" d="M204.9,199.5c.3,2.1.6,2.4,3.6,2.3l3.3-.2-.6,9.2c-.5,7.7-.3,9.4.7,10.5.8.8,2.1,1.1,3.2.9,1.7-.5,1.7-.9,1.4-10.5l-.3-9.9h3.4c3.1,0,3.4,0,3.7-2.3l.3-2.3h-18.9l.3,2.3Z"/>
    </g>
  </g>
</svg>